<?xml version="1.0" encoding="UTF-8" standalone="no"?>
<svg
   version="1.1"
   width="30.049759"
   height="40"
   id="svg28"
   xmlns="http://www.w3.org/2000/svg"
   xmlns:svg="http://www.w3.org/2000/svg">
  <defs
     id="defs28" />
  <g
     id="g28"
     transform="translate(0.75193191,0.45045686)">
    <path
       d="m 14.210344,-0.44132015 0.296337,-0.008987 c 0.444729,-0.002185 0.744074,0.0170446 1.143013,0.22373056 0.743353,0.84053147 1.154667,1.83020659 1.509353,2.88153609 l 0.131861,0.3787834 c 0.137387,0.3951888 0.272968,0.7909637 0.408309,1.1868576 0.136451,0.3966662 0.273302,0.7931833 0.410903,1.1894519 0.0851,0.2453098 0.169516,0.4908581 0.253123,0.7366804 0.335949,1.1846878 0.335949,1.1846878 1.076626,2.0546636 0.232955,0.0092 0.466241,0.010438 0.699365,0.00798 l 0.444758,-0.00358 0.483481,-0.00535 c 0.165363,-0.00115 0.330726,-0.00219 0.49609,-0.00313 0.702466,-0.00406 1.404913,-0.00906 2.10735,-0.016677 0.429746,-0.00459 0.859472,-0.00736 1.289239,-0.009 0.241788,-0.00144 0.483561,-0.00485 0.725329,-0.0083 1.001966,-0.0028 1.880363,0.034071 2.692259,0.666673 l 0.264881,0.2871131 0.27245,0.288059 c 0.328331,0.3862287 0.389578,0.6810225 0.382187,1.1919685 -0.224065,1.221585 -1.814139,2.258219 -2.743419,2.939716 l -0.316735,0.235023 c -0.327725,0.242863 -0.656216,0.484651 -0.98497,0.726119 l -0.325072,0.238926 -0.319159,0.234551 -0.311591,0.22914 c -0.195046,0.143253 -0.390306,0.286215 -0.585814,0.428836 -0.175081,0.128205 -0.349289,0.257614 -0.522432,0.388425 -0.150615,0.111625 -0.304735,0.218769 -0.462834,0.319514 -0.234954,0.150063 -0.234954,0.150063 -0.500319,0.461296 -0.09068,0.931993 0.146208,1.691966 0.437528,2.571246 l 0.135846,0.423819 c 0.14291,0.445114 0.287912,0.88951 0.433177,1.333862 0.14364,0.442717 0.286812,0.885578 0.429285,1.328674 0.08847,0.274796 0.177643,0.549368 0.267665,0.82366 0.870067,2.688763 0.870067,2.688763 0.614215,3.457958 -0.335583,0.564283 -0.878937,1.147554 -1.470095,1.443133 -1.20355,0.18157 -2.044717,-0.40533 -2.97794,-1.087759 C 19.340057,26.530046 18.608157,25.94078 17.88085,25.343036 17.176652,24.767662 16.465674,24.202275 15.739091,23.65536 l -0.270735,-0.212112 c -0.429573,-0.317555 -0.653061,-0.466322 -1.198413,-0.48131 -0.439854,0.146618 -0.695251,0.313402 -1.043445,0.617742 l -0.345293,0.297992 -0.3434,0.307452 -0.320696,0.284748 c -0.203336,0.182063 -0.4058,0.365104 -0.607337,0.549157 -0.254001,0.22979 -0.51305,0.451271 -0.774779,0.672138 -0.371088,0.321162 -0.691684,0.666971 -1.0141192,1.036823 -0.5951425,0.676626 -1.2583158,1.197099 -2.005534,1.695244 0.027726,1.386282 0.8382837,2.643289 1.7794385,3.61138 1.5823267,1.493823 3.4955197,2.18367 5.6386727,2.406641 l 0.404063,0.04225 c 0.263413,0.02579 0.527138,0.04863 0.791098,0.06805 1.015041,0.09493 1.760229,0.408373 2.420949,1.205124 0.134118,0.373613 0.132604,0.531248 -0.01514,0.900598 -0.27245,0.31029 -0.27245,0.31029 -0.605444,0.605444 l -0.27245,0.264882 c -1.172078,0.772506 -2.962157,0.610904 -4.306222,0.613013 l -0.249247,8.47e-4 c -1.403042,0.0018 -2.755595,-0.119301 -4.1326561,-0.394386 l 0.030272,0.438947 c -0.0041,0.384243 -0.049155,0.577132 -0.1967694,0.947426 -0.4036962,0.392281 -0.642449,0.405016 -1.1908155,0.416095 l -0.3379312,-0.0088 -0.3471548,-0.0062 C 6.2312347,39.489696 5.5585701,39.238042 4.7881186,38.594698 L 4.60347,38.441386 C 4.1599998,38.067786 3.7458923,37.67181 3.3350525,37.262721 L 3.0626026,37.003042 C 1.960194,35.876948 1.3043186,34.31838 1.0343644,32.782433 L 0.9511158,32.32835 C 0.55783134,28.278359 2.223622,24.966723 4.7323634,21.898628 c 0.5656113,-0.674652 1.1714118,-1.293027 2.0083129,-1.61105 0.4132585,0.02695 0.6458416,0.150341 0.9885769,0.373199 0.2230624,0.144125 0.4525188,0.260707 0.6915308,0.376038 l 0.1428471,-0.231771 c 0.5567359,-0.890265 1.155996,-1.742506 1.7703329,-2.593182 0.335935,-0.467548 0.664122,-0.940599 0.992952,-1.413156 l -0.197745,0.07589 c -0.299536,0.114361 -0.599567,0.227365 -0.899622,0.340355 l -0.311,0.119434 C 9.0449803,17.661548 8.3422945,17.904454 7.4504768,17.525062 7.0500034,17.323792 6.688487,17.081872 6.3244334,16.82141 L 6.0756337,16.646842 C 5.1237862,15.974956 4.1869797,15.282033 3.252809,14.585878 2.9818276,14.384395 2.7099275,14.184219 2.4377652,13.984336 1.5227448,13.309514 0.64439897,12.623167 -0.17652408,11.834063 L -0.44518996,11.620738 C -0.74974052,11.238046 -0.75369649,10.874437 -0.7516961,10.403701 l 3.6327e-4,-0.263049 c 0.0180628,-0.4083937 0.065256,-0.6889931 0.2867287,-1.0353452 C 1.0611892,7.7468031 3.6969694,8.1672261 5.6034671,8.1345266 c 0.359363,-0.00632 0.7187116,-0.013226 1.0780632,-0.020162 l 0.3272794,-0.00498 C 7.3182733,8.1033555 7.6271574,8.0932005 7.936408,8.0803084 L 8.2666716,8.0682177 C 8.8942782,8.0310499 8.8942782,8.0310499 9.4463825,7.7557104 9.6650876,7.4241804 9.7995899,7.1099543 9.932009,6.7350875 l 0.160466,-0.447136 0.08267,-0.2363428 C 10.260761,5.8071499 10.348176,5.563405 10.436112,5.3197729 10.665863,4.6822647 10.941,3.8500836 11.166294,3.2109877 11.304934,2.8188988 11.397496,2.6213384 11.538801,2.230204 l 0.120232,-0.3491947 c 0.480569,-1.32295929 1.088932,-2.3200283 2.551311,-2.32232945 z"
       fill="#001432"
       id="path1"
       style="stroke-width:0.121089" />
    <path
       d="m 14.11196,0.69388778 c 0.226513,0.0334447 0.226513,0.0334447 0.484355,0.12108885 0.140981,0.19092147 0.140981,0.19092147 0.250633,0.43359627 0.04002,0.087785 0.08003,0.1755707 0.121259,0.2660163 0.165944,0.3970634 0.318939,0.7963248 0.46154,1.2023337 0.03101,0.086628 0.06202,0.1732563 0.09397,0.2625095 0.100072,0.2798341 0.199339,0.5599469 0.298624,0.8400612 0.139423,0.3904825 0.279266,0.7808138 0.419081,1.1711562 0.05218,0.1459412 0.05218,0.1459412 0.105406,0.2948307 0.377377,1.0543428 0.766744,2.1040936 1.157572,3.1535112 0.06928,0.1860655 0.06928,0.1860655 0.139949,0.3758899 0.06011,0.1609835 0.06011,0.1609835 0.121444,0.3252193 0.07729,0.2105244 0.150093,0.4226963 0.221011,0.6354504 0.13195,-4.034e-4 0.13195,-4.034e-4 0.266565,-8.149e-4 0.838662,-0.00245 1.677323,-0.00428 2.515988,-0.00546 0.43092,-6.256e-4 0.861836,-0.00147 1.292755,-0.00286 4.389367,-0.013738 4.389367,-0.013738 5.369622,0.1302237 0.07992,0.079919 0.159837,0.1598369 0.242178,0.2421779 -0.01598,0.388577 -0.08059,0.562158 -0.347658,0.847622 -0.102552,0.07992 -0.205104,0.159837 -0.310763,0.242177 -0.121283,0.09475 -0.242566,0.189495 -0.367524,0.287113 -0.566035,0.425541 -1.141491,0.838225 -1.717622,1.249941 -1.067572,0.764731 -2.108305,1.564258 -3.149227,2.364692 -0.352983,0.26876 -0.71061,0.530967 -1.069756,0.791423 -0.198877,0.144 -0.198877,0.144 -0.302781,0.392563 -0.04187,0.727486 0.0616,1.308454 0.279545,1.999385 0.02934,0.09672 0.05868,0.193433 0.0889,0.293081 0.09541,0.313426 0.192697,0.626239 0.289971,0.939093 0.06623,0.216823 0.132331,0.433686 0.198307,0.650586 0.305651,1.00198 0.61801,2.001761 0.935482,3.000053 0.05094,0.161026 0.101882,0.322054 0.15281,0.483084 0.09344,0.294107 0.188034,0.587848 0.283979,0.881146 0.21078,0.660796 0.388018,1.229388 0.313868,1.925035 -0.03996,0.03996 -0.07992,0.07992 -0.121089,0.121089 -0.656528,-0.03914 -1.019077,-0.189422 -1.528747,-0.597876 -0.125341,-0.09865 -0.250682,-0.197299 -0.379822,-0.298938 -0.06452,-0.05182 -0.129048,-0.103645 -0.195527,-0.157037 -0.257101,-0.205372 -0.518317,-0.40508 -0.779776,-0.604853 -0.453205,-0.346404 -0.904096,-0.69583 -1.355184,-1.044983 -0.322388,-0.249006 -0.645616,-0.49684 -0.969302,-0.744152 -0.178542,-0.137131 -0.356545,-0.274964 -0.534257,-0.413169 -0.322441,-0.250601 -0.646253,-0.499349 -0.970248,-0.747936 -0.154896,-0.121327 -0.154896,-0.121327 -0.312921,-0.245105 -0.706627,-0.559076 -0.706627,-0.559076 -1.571524,-0.716038 -2.302995,0.858283 -4.6498818,3.489306 -6.1755315,5.327909 -0.1612347,-0.483704 -0.00305,-0.779671 0.1740652,-1.233592 0.049183,-0.128132 0.049183,-0.128132 0.09936,-0.258851 1.1832135,-3.005516 3.0023323,-5.581679 5.1755733,-7.952487 0.103644,-0.114883 0.207289,-0.229766 0.314074,-0.34813 0.650503,-0.719144 1.317527,-1.416292 2.011358,-2.093927 0.332668,-0.320729 0.332668,-0.320729 0.5807,-0.706253 -0.971096,0.05335 -1.859749,0.229226 -2.792612,0.499492 -0.197289,0.05628 -0.197289,0.05628 -0.398564,0.113698 C 11.70047,14.828624 10.225688,15.3759 8.8157385,16.102443 8.4484207,16.224249 8.3034347,16.205198 7.9364286,16.072171 7.5856986,15.85763 7.2587753,15.614691 6.9298776,15.368342 6.7851373,15.261766 6.7851373,15.261766 6.6374729,15.153037 6.3430995,14.935785 6.0498678,14.717065 5.7568294,14.498016 5.5953959,14.378164 5.4339453,14.258335 5.272474,14.138534 4.7861936,13.776538 4.3025546,13.411113 3.8194079,13.04495 3.7137927,12.964992 3.6081776,12.885035 3.499362,12.802654 3.1567978,12.54313 2.8144947,12.283266 2.4722944,12.023263 2.3646208,11.941579 2.2569473,11.859894 2.1460108,11.775734 1.6034643,11.362585 1.069423,10.944012 0.550009,10.502084 0.59541732,10.267475 0.59541732,10.267475 0.67109784,10.017729 1.0644971,9.8210294 1.4994036,9.8514105 1.9325977,9.8318387 2.0389853,9.8267846 2.145373,9.8217305 2.2549845,9.8165233 3.8620822,9.7459381 5.471523,9.7353084 7.0799083,9.7178153 c 0.423802,-0.00481 0.8475643,-0.011036 1.2713442,-0.017472 0.1284075,-0.00102 0.256815,-0.00204 0.3891136,-0.00309 0.6580572,-0.010995 1.2505896,-0.022372 1.8600169,-0.2849716 0.196076,-0.2393744 0.196076,-0.2393744 0.288059,-0.5505758 0.04321,-0.1177122 0.08642,-0.2354244 0.130933,-0.3567036 0.04405,-0.1301605 0.08809,-0.260321 0.133476,-0.3944257 0.04912,-0.1356236 0.09824,-0.2712473 0.148848,-0.4109807 0.11033,-0.3052111 0.219379,-0.6106196 0.326757,-0.9168578 0.310994,-0.8854679 0.633766,-1.7666873 0.956291,-2.6480055 0.110275,-0.3029706 0.218862,-0.6065057 0.327233,-0.9101619 0.069,-0.1905182 0.138051,-0.3810209 0.207146,-0.5715062 0.03011,-0.085668 0.06023,-0.1713368 0.09125,-0.2596012 0.226777,-0.6191759 0.534583,-1.1526281 0.901581,-1.69957852 z"
       fill="#3f2ce8"
       id="path2"
       style="stroke-width:0.121089" />
    <path
       d="m 6.2411848,22.732058 c 0.1210888,0.242178 0.1210888,0.242178 0.057706,0.50091 -0.034028,0.101928 -0.068056,0.203855 -0.1031147,0.308872 -0.7514931,2.25799 -0.4988188,5.147605 0.4607052,7.302225 1.2090284,2.3158 3.1358109,3.93254 5.6099377,4.762079 0.923981,0.280616 1.870753,0.484742 2.814252,0.687865 0,0.03996 0,0.07992 0,0.121088 -3.190977,0.07285 -6.0707313,-0.03793 -8.7411019,-1.975261 C 5.956245,34.073548 5.6484029,33.680006 5.3349104,33.253543 5.1668987,33.01127 5.1668987,33.01127 4.9092075,32.903521 c -0.1287763,1.584663 0.4350796,2.843468 1.3319773,4.117021 0.098768,0.148584 0.1972343,0.29737 0.295154,0.446515 0.093655,0.138609 0.093655,0.138609 0.1892014,0.280018 C 5.3423771,37.246525 4.0796261,35.963293 3.3691087,34.696203 2.9224816,33.718526 2.6525824,32.646299 2.6085194,31.571544 c -0.00484,-0.101303 -0.00968,-0.202607 -0.014663,-0.30698 -0.07872,-3.218237 1.482507,-6.228468 3.6473284,-8.532506 z"
       fill="#f16918"
       id="path3"
       style="stroke-width:0.121089" />
    <path
       d="m 14.293593,0.38359762 c 0.435173,0.097914 0.534375,0.31130147 0.787078,0.67355668 0.132127,0.2850428 0.247274,0.5614315 0.355698,0.85519 0.03383,0.089196 0.06767,0.1783926 0.102524,0.2702918 0.131791,0.3506632 0.26079,0.7022737 0.389399,1.0541175 0.02962,0.081031 0.05924,0.1620615 0.08976,0.2455478 1.353992,3.7070311 1.353992,3.7070311 1.701031,4.7640302 0.220551,0.6956253 0.220551,0.6956253 0.630986,1.287042 0.285356,0.013194 0.567294,0.018674 0.852766,0.019098 0.08919,6.152e-4 0.178388,0.00123 0.270285,0.00186 0.194319,0.0013 0.388639,0.00234 0.582961,0.00316 0.307343,0.00142 0.614664,0.00378 0.921998,0.00643 0.874043,0.00748 1.748084,0.014009 2.62215,0.018044 0.534044,0.00253 1.068051,0.0068 1.602074,0.012201 0.203828,0.00172 0.407664,0.00277 0.611499,0.00315 0.285013,5.927e-4 0.569925,0.00339 0.854917,0.0067 0.08456,-3.64e-4 0.169113,-7.28e-4 0.256232,-0.0011 0.342499,0.00592 0.576382,0.017065 0.865056,0.2103368 0.126081,0.2044666 0.126081,0.2044666 0.121351,0.6202366 -0.133728,0.496315 -0.241071,0.620298 -0.646122,0.923775 -0.120346,0.09178 -0.240693,0.183563 -0.364686,0.278126 -0.145737,0.106728 -0.291589,0.213298 -0.437528,0.319751 -0.17745,0.13171 -0.354822,0.263527 -0.532129,0.39543 -0.392078,0.290686 -0.785233,0.579836 -1.179197,0.867961 -1.902451,1.383528 -1.902451,1.383528 -3.737672,2.853629 -0.0704,0.04855 -0.140794,0.09709 -0.213324,0.147104 -0.248457,0.358185 -0.186514,0.766515 -0.149942,1.184874 0.07527,0.349029 0.184866,0.681894 0.30083,1.019322 0.0311,0.09434 0.06221,0.188681 0.09425,0.28588 0.09905,0.2995 0.200044,0.598299 0.301177,0.897101 0.06604,0.198064 0.131948,0.396174 0.197716,0.594329 0.09654,0.290808 0.193151,0.581588 0.290254,0.872209 0.264056,0.791343 0.513616,1.586488 0.753191,2.385601 0.04642,0.153316 0.04642,0.153316 0.09377,0.309728 0.08159,0.272139 0.160781,0.544851 0.239221,0.817912 0.02669,0.08874 0.05338,0.177475 0.08088,0.268902 0.171825,0.602454 0.238072,1.124621 0.191566,1.751768 -0.242177,0.242178 -0.242177,0.242178 -0.597876,0.31029 -1.108953,-0.03895 -2.109795,-1.135485 -2.905659,-1.813968 -0.548778,-0.466087 -1.12333,-0.89882 -1.696604,-1.334046 -0.298202,-0.22707 -0.595392,-0.455438 -0.892616,-0.683786 -0.229393,-0.175818 -0.458799,-0.351617 -0.68822,-0.527398 -0.110035,-0.08462 -0.220069,-0.169242 -0.333438,-0.256427 -0.104747,-0.08006 -0.209494,-0.160111 -0.317415,-0.242592 -0.09334,-0.07156 -0.186685,-0.143116 -0.282856,-0.216842 -0.534612,-0.414936 -0.534612,-0.414936 -1.166899,-0.565505 -0.467461,0.179687 -0.828063,0.461137 -1.221767,0.766738 -0.127429,0.09752 -0.127429,0.09752 -0.257432,0.197006 -1.72169,1.329867 -3.4096398,2.750961 -4.700116,4.515999 -0.064778,0.07055 -0.1295556,0.141106 -0.1962964,0.213797 -0.1198779,0 -0.2397559,0 -0.3632665,0 0.045217,-0.856087 0.2071377,-1.571693 0.5373317,-2.361232 0.042535,-0.103723 0.08507,-0.207445 0.1288934,-0.314311 1.1319453,-2.684666 2.8111868,-5.089909 4.7785158,-7.227254 0.221665,-0.241662 0.435135,-0.488116 0.647542,-0.737885 0.445552,-0.514018 0.929165,-0.9887 1.415373,-1.463886 0.346268,-0.331971 0.346268,-0.331971 0.605297,-0.730849 -2.160657,0.325312 -4.370856,0.925015 -6.3065533,1.955868 -0.4487528,0.223141 -0.8109825,0.35456 -1.3220442,0.34482 C 7.7085845,16.277043 7.420865,16.056591 7.1190789,15.822426 7.0304777,15.75677 6.9418765,15.691114 6.8505904,15.623469 6.66173,15.483233 6.4736286,15.34197 6.2862383,15.199776 6.0041657,14.986276 5.7197961,14.776361 5.4342411,14.567548 5.0507612,14.287092 4.6682897,14.005361 4.2867351,13.722291 3.8858196,13.4251 3.4833672,13.130176 3.0796307,12.836829 0.34885281,10.850019 0.34885281,10.850019 0.25248992,10.31714 0.30783131,10.017729 0.30783131,10.017729 0.47480147,9.8029855 0.97086988,9.5708461 1.4534526,9.5890822 1.9955071,9.5787819 c 0.1268338,-0.00382 0.2536675,-0.00765 0.3843448,-0.011589 0.4798111,-0.013603 0.9596585,-0.023903 1.439556,-0.03382 0.2188431,-0.00468 0.437686,-0.00937 0.6565285,-0.014072 0.116141,-0.00248 0.2322819,-0.00496 0.3519422,-0.00752 0.2419282,-0.00518 0.4838559,-0.010384 0.7257829,-0.015617 0.6079482,-0.013082 1.215893,-0.025489 1.8238842,-0.036403 0.2290223,-0.00447 0.4580446,-0.00894 0.6870668,-0.013421 0.1550204,-0.00246 0.1550204,-0.00246 0.3131726,-0.00496 0.7053698,-0.014419 1.4005707,-0.070531 2.1015089,-0.1501822 0.02414,-0.082953 0.04827,-0.1659053 0.07314,-0.2513717 0.165431,-0.5660142 0.342898,-1.1216937 0.55501,-1.6718598 0.114603,-0.2986286 0.223957,-0.5989474 0.332994,-0.8996522 0.06158,-0.1697491 0.06158,-0.1697491 0.1244,-0.3429274 0.06205,-0.1711539 0.06205,-0.1711539 0.125346,-0.3457655 0.121461,-0.334135 0.242998,-0.6682414 0.364685,-1.002294 0.07651,-0.2107743 0.15255,-0.4217187 0.227988,-0.6328784 0.123314,-0.3437047 0.249361,-0.6863013 0.376038,-1.0287822 0.04762,-0.1303556 0.04762,-0.1303556 0.0962,-0.2633446 0.107797,-0.2936865 0.217546,-0.586589 0.327614,-0.8794314 0.0517,-0.1420185 0.0517,-0.1420185 0.104445,-0.286906 0.43804,-1.15199434 0.43804,-1.15199434 1.106443,-1.30238508 z M 14.11196,0.69388778 C 13.593665,1.4562867 13.271833,2.2164838 12.9654,3.0835005 c -0.04877,0.1349432 -0.09755,0.2698864 -0.147799,0.4089187 -0.154873,0.4290321 -0.308224,0.8585873 -0.461429,1.2882172 -0.153472,0.4277991 -0.30727,0.8554774 -0.46143,1.2830288 -0.09548,0.2650862 -0.190539,0.5303276 -0.285073,0.7957542 -0.08785,0.2448864 -0.177107,0.4892722 -0.267883,0.7330886 -0.09513,0.2565987 -0.186329,0.5146772 -0.274519,0.7737447 -0.360096,0.9863548 -0.360096,0.9863548 -0.840941,1.2550699 -0.6261979,0.043821 -1.247279,0.07404 -1.8750735,0.079021 -0.2032571,0.00309 -0.2032571,0.00309 -0.4106204,0.00624 -0.4327732,0.00641 -0.8655457,0.011288 -1.2983405,0.015995 -2.3516383,0.02737 -2.3516383,0.02737 -4.7021259,0.1016957 -0.1495941,0.00531 -0.1495941,0.00531 -0.3022103,0.010718 -0.4592691,0.02228 -0.69737882,0.04345 -1.0879464,0.3038287 0.0608528,0.495673 0.2905664,0.667341 0.6735567,0.968711 0.1819242,0.143525 0.1819242,0.143525 0.3675236,0.289951 0.1371258,0.105428 0.2744628,0.210583 0.4119859,0.315493 0.071158,0.05438 0.142316,0.108756 0.2156303,0.164782 0.4815433,0.366556 0.9663993,0.728518 1.4526523,1.088795 0.2792595,0.20699 0.5579971,0.414672 0.8367429,0.622354 0.481294,0.357812 0.9645087,0.712874 1.4494003,1.065795 0.1885049,0.137273 0.3766846,0.274993 0.5645295,0.413168 0.2632563,0.192934 0.5281942,0.383269 0.7938178,0.572925 0.078436,0.058 0.1568715,0.115995 0.2376842,0.175751 0.4263678,0.299714 0.4263678,0.299714 0.930161,0.373879 0.3816025,-0.150237 0.7540545,-0.315253 1.1252748,-0.489085 1.6595507,-0.748795 3.4137187,-1.325153 5.1841167,-1.748221 0.08085,-0.01938 0.16169,-0.03877 0.244986,-0.05874 0.465354,-0.103645 0.898485,-0.140471 1.374577,-0.122892 -0.530021,0.641604 -1.104364,1.231518 -1.695244,1.816333 -0.591118,0.58635 -1.160214,1.177863 -1.695244,1.816333 -0.150316,0.172558 -0.150316,0.172558 -0.303668,0.348603 -1.662025,1.91512 -3.0451832,3.979349 -4.0555303,6.311283 -0.045276,0.104123 -0.090552,0.208245 -0.1372005,0.315523 -0.274178,0.655069 -0.4543721,1.28787 -0.5893326,1.985165 0.4128563,-0.322229 0.7727012,-0.645492 1.1125038,-1.044391 1.3580516,-1.58044 2.9464266,-2.915135 4.6997606,-4.04134 0.07586,-0.04979 0.151721,-0.09959 0.22988,-0.150888 0.364359,-0.130709 0.606994,-0.05886 0.981009,0.0298 0.290926,0.17238 0.290926,0.17238 0.571861,0.393066 0.15652,0.121253 0.15652,0.121253 0.316202,0.244956 0.10903,0.08665 0.21806,0.1733 0.330393,0.262576 0.113244,0.08821 0.226488,0.176422 0.343164,0.267306 0.225675,0.175884 0.450934,0.352304 0.675744,0.529291 0.381903,0.300303 0.76721,0.595965 1.153123,0.891079 0.37298,0.286944 0.745389,0.574551 1.116288,0.864177 0.668558,0.520918 1.343102,1.033568 2.032022,1.527328 0.124873,0.09022 0.249746,0.180441 0.378403,0.273396 0.36298,0.204176 0.545489,0.252663 0.953575,0.195823 0.158331,-0.132841 0.158331,-0.132841 0.155736,-0.459966 -0.01136,-0.691593 -0.259094,-1.336092 -0.467918,-1.988772 -0.04454,-0.142603 -0.08909,-0.285207 -0.134976,-0.432131 -0.142453,-0.455299 -0.286536,-0.910061 -0.430736,-1.364809 -0.142127,-0.451823 -0.283912,-0.903752 -0.425548,-1.355729 -0.08806,-0.280601 -0.17645,-0.561096 -0.265252,-0.841462 -0.976642,-3.094604 -0.976642,-3.094604 -0.853083,-3.849683 0.470095,-0.536344 1.03351,-0.95848 1.596859,-1.392522 0.143277,-0.110966 0.143277,-0.110966 0.289448,-0.224174 0.7439,-0.572701 1.501276,-1.124785 2.264859,-1.670825 0.662971,-0.475174 1.315897,-0.962161 1.963821,-1.457648 0.08773,-0.06697 0.175465,-0.133946 0.265857,-0.202948 0.458878,-0.352247 0.458878,-0.352247 0.884487,-0.743059 -0.0351,-0.400421 -0.0351,-0.400421 -0.242178,-0.7265325 -1.858736,-0.2157656 -3.755439,-0.1354311 -5.623921,-0.1294033 -0.431959,0.00126 -0.86392,0.0018 -1.295881,0.0024 -0.841712,0.00128 -1.68342,0.00334 -2.525128,0.00591 -0.03731,-0.112489 -0.07461,-0.224977 -0.11305,-0.3408737 C 17.747494,9.0575848 17.613661,8.6843636 17.476432,8.311133 17.423917,8.1680951 17.371403,8.0250571 17.317296,7.8776846 17.26046,7.7232246 17.203611,7.5687695 17.146749,7.4143188 17.026887,7.0885899 16.907062,6.7628474 16.787267,6.4370939 16.756546,6.3535889 16.725826,6.2700838 16.694175,6.1840482 16.506886,5.6744401 16.320955,5.1643617 16.136268,4.653805 16.017569,4.3257063 15.898454,3.9977592 15.779322,3.6698177 15.722842,3.5139782 15.666562,3.3580658 15.610497,3.2020765 15.181069,1.9730101 15.181069,1.9730101 14.596315,0.81497663 14.347556,0.72517551 14.347556,0.72517551 14.11196,0.69388778 Z"
       fill="#202253"
       id="path4"
       style="stroke-width:0.121089" />
    <path
       d="m 7.0888067,21.642258 c -0.072515,0.546335 -0.2166965,1.01122 -0.423811,1.521179 -0.4366678,1.077706 -0.4577455,2.06693 -0.4662038,3.213259 -0.002,0.197378 -0.00529,0.394748 -0.00993,0.592082 -0.029654,1.269562 0.047705,2.244921 0.6577702,3.391877 0.065246,0.143604 0.1304922,0.287208 0.1977154,0.435163 1.1466903,2.233345 3.0706195,3.671719 5.3974405,4.555968 1.490457,0.458068 3.072443,0.528211 4.618552,0.660638 0.321022,0.03941 0.321022,0.03941 0.563199,0.160496 0,0.07992 0,0.159837 0,0.242177 -1.325514,0.222495 -2.615498,0.276803 -3.957707,0.2671 -0.32328,-0.0023 -0.646518,-0.0025 -0.969805,-0.0025 -0.206151,-5.94e-4 -0.412301,-0.0013 -0.618451,-0.0021 -0.09635,-1.34e-4 -0.192701,-2.69e-4 -0.291971,-4.08e-4 -0.672724,-0.0059 -0.672724,-0.0059 -0.943041,-0.14102 -0.257033,-0.03257 -0.514417,-0.06239 -0.771941,-0.09082 -1.9239112,-0.267538 -3.419454,-1.253114 -4.7981459,-2.573138 0.180372,1.774409 1.2684189,2.979141 2.4898894,4.177565 0.2951541,0.302722 0.2951541,0.302722 0.2951541,0.5449 C 6.2380227,38.369321 4.8266798,37.106299 3.7058871,35.741541 2.2735988,33.77258 2.1300359,31.46035 2.3998658,29.098505 2.7957889,26.624688 4.2944693,24.4754 5.8779182,22.610969 5.951125,22.522778 6.0243317,22.434586 6.0997568,22.343722 6.6869292,21.642258 6.6869292,21.642258 7.0888067,21.642258 Z m -1.0330392,1.268595 c -1.77597,1.938063 -3.3374702,4.651087 -3.4472481,7.328713 -0.00484,0.101303 -0.00968,0.202607 -0.014663,0.306979 -0.052131,2.131228 0.4551589,4.093455 1.9391362,5.655287 0.5961829,0.608488 1.2154507,1.115179 1.95037,1.545243 0.079919,-0.03996 0.1598373,-0.07992 0.2421777,-0.121089 -0.062905,-0.0821 -0.1258095,-0.164208 -0.1906204,-0.2488 -1.0837232,-1.446299 -1.6927363,-2.656571 -1.6257123,-4.473665 0.4166155,0.290368 0.6938,0.596991 0.9838468,1.006551 1.2717342,1.669151 3.541136,2.13822 5.5033936,2.453468 0.720556,0.08606 1.446189,0.0643 2.170612,0.05913 0.145789,-5.47e-4 0.291578,-0.0011 0.441785,-0.0017 0.357282,-0.0014 0.71455,-0.0034 1.071826,-0.0059 -0.340214,-0.226809 -0.509004,-0.292547 -0.895396,-0.372726 -0.104893,-0.02275 -0.209786,-0.0455 -0.317858,-0.06894 -0.111605,-0.02408 -0.22321,-0.04815 -0.338197,-0.07296 C 10.839398,35.2839 8.6106109,34.010222 7.101903,31.633773 6.1637744,30.074403 5.8311077,28.380874 5.840078,26.584197 c 2.439e-4,-0.132395 4.878e-4,-0.264789 7.39e-4,-0.401196 0.01271,-1.029951 0.1320427,-1.972534 0.4003678,-2.966588 0.040425,-0.161436 0.080818,-0.32288 0.1210888,-0.484355 -0.1494913,-0.01401 -0.1494913,-0.01401 -0.3065061,0.178795 z"
       fill="#814236"
       id="path5"
       style="stroke-width:0.121089" />
    <path
       d="m 5.3935629,35.08312 c 0.2567465,0.327241 0.4565739,0.654785 0.6508525,1.021687 0.3971971,0.679896 0.9225765,1.191138 1.4901378,1.728088 0.1780556,0.169367 0.3509939,0.344082 0.5229643,0.519624 0,0.07992 0,0.159837 0,0.242178 -1.37603,-0.164957 -2.5605524,-0.968786 -3.5115766,-1.937422 0.039959,-0.159837 0.079919,-0.319674 0.1210889,-0.484355 0.078982,0.07446 0.1579642,0.148911 0.2393397,0.225622 0.1058297,0.09787 0.2116595,0.195739 0.3206962,0.296573 0.1039567,0.09693 0.2079133,0.193866 0.3150202,0.293736 0.3384975,0.276042 0.6657037,0.457416 1.0623654,0.637135 C 6.557624,37.570105 6.5107967,37.514225 6.4625503,37.456651 5.9178886,36.774475 5.3935629,35.983227 5.3935629,35.08312 Z"
       fill="#763e31"
       id="path7"
       style="stroke-width:0.121089" />
    <path
       d="m 13.264338,35.688564 c 0.484486,0.03884 0.968784,0.07981 1.453066,0.121089 0.107703,0.0091 0.215406,0.01819 0.326372,0.02755 0.360477,0.03064 0.720884,0.06203 1.081286,0.09354 0.119195,0.01005 0.23839,0.0201 0.361197,0.03045 0.112132,0.0099 0.224264,0.01986 0.339794,0.0301 0.101088,0.0087 0.202177,0.01748 0.306329,0.02649 0.248977,0.03406 0.248977,0.03406 0.491154,0.155145 0,0.07992 0,0.159837 0,0.242177 -1.437417,0.242925 -2.836402,0.271556 -4.291086,0.257314 -0.219236,-0.0012 -0.438473,-0.0023 -0.657711,-0.0033 -0.530017,-0.0026 -1.060001,-0.0068 -1.59,-0.01183 0,-0.03996 0,-0.07992 0,-0.121089 1.358616,0 2.717233,0 4.11702,0 0,-0.119878 0,-0.239756 0,-0.363266 -0.639349,-0.119878 -1.278698,-0.239756 -1.937421,-0.363267 0,-0.03996 0,-0.07992 0,-0.121089 z"
       fill="#7b4025"
       id="path8"
       style="stroke-width:0.121089" />
    <path
       d="m 10.116028,34.598765 c 0.812739,0.151527 1.543866,0.403152 2.310621,0.71187 0.280403,0.107731 0.544904,0.193746 0.837689,0.256841 0,0.07992 0,0.159837 0,0.242177 0.679308,0.07992 1.358617,0.159838 2.05851,0.242178 -0.03996,0.159837 -0.07992,0.319675 -0.121089,0.484355 -0.998983,0 -1.997966,0 -3.027221,0 0,-0.03996 0,-0.07992 0,-0.121089 1.258719,-0.05994 1.258719,-0.05994 2.542866,-0.121088 -0.384608,-0.08491 -0.769217,-0.169827 -1.16548,-0.257314 -2.747102,-0.635129 -2.747102,-0.635129 -3.435896,-1.43793 z"
       fill="#8d4841"
       id="path9"
       style="stroke-width:0.121089" />
    <path
       d="m 4.9092075,32.782432 c 0.4765432,0.370645 0.8090149,0.664918 1.0897996,1.210889 -0.3494331,-0.0482 -0.4627889,-0.09567 -0.6962609,-0.370835 -0.049949,-0.07742 -0.099898,-0.154842 -0.151361,-0.23461 -0.020454,0.531805 -0.010844,0.868105 0.2421777,1.331978 0.066269,0.245194 0.1228367,0.491892 0.1802142,0.739304 0.057552,0.244824 0.057552,0.244824 0.2057565,0.509424 0.098385,0.204338 0.098385,0.204338 -0.022704,0.567604 -0.6460737,-1.219007 -1.0864436,-2.228085 -0.9687108,-3.632665 0.039959,-0.03996 0.079919,-0.07992 0.1210887,-0.121089 z"
       fill="#8a4737"
       id="path10"
       style="stroke-width:0.121089" />
    <path
       d="m 5.0302963,33.266787 c 0.087411,0.09241 0.174822,0.184812 0.2648819,0.280018 0.3102347,0.296447 0.5796353,0.473531 0.9460066,0.688693 0.205617,0.139402 0.4099591,0.280701 0.6130123,0.423811 0.1013031,0.07118 0.2026062,0.142355 0.3069791,0.21569 0.2612792,0.186931 0.5191784,0.37741 0.7752524,0.571388 -0.6237766,0.0542 -0.9078441,-0.0677 -1.4000898,-0.446515 C 6.3644826,34.868053 6.3644826,34.868053 6.1891544,34.733571 5.8588678,34.462013 5.5593035,34.188733 5.272474,33.872232 5.192555,33.99211 5.1126367,34.111988 5.0302963,34.235498 c 0,-0.319674 0,-0.639349 0,-0.968711 z"
       fill="#824337"
       id="path11"
       style="stroke-width:0.121089" />
    <path
       d="m 5.8779182,25.63819 c 0.039959,0 0.079919,0 0.1210889,0 4.975e-4,0.07549 9.951e-4,0.150979 0.00151,0.228756 0.02074,1.997976 0.02074,1.997976 0.5850164,3.895833 0.1578865,0.401117 0.2141057,0.77612 0.2610978,1.20332 -0.079919,0 -0.1598373,0 -0.2421777,0 C 5.8907181,29.100041 5.7259477,27.619968 5.8779182,25.63819 Z"
       fill="#8b4733"
       id="path12"
       style="stroke-width:0.121089" />
    <path
       d="m 5.3935629,35.08312 c 0.2567465,0.327241 0.4565739,0.654785 0.6508525,1.021687 0.3971971,0.679896 0.9225765,1.191138 1.4901378,1.728088 0.1780556,0.169367 0.3509939,0.344082 0.5229643,0.519624 0,0.07992 0,0.159837 0,0.242178 -0.2397559,-0.03996 -0.4795119,-0.07992 -0.7265331,-0.121089 0,-0.119878 0,-0.239756 0,-0.363267 C 7.1663233,37.870019 7.1663233,37.870019 6.9450137,37.633554 6.8288819,37.504076 6.8288819,37.504076 6.7104041,37.371983 6.4811485,37.125374 6.4811485,37.125374 6.1579362,36.914589 5.7256286,36.517333 5.5596707,36.002245 5.3935629,35.446387 c 0,-0.119878 0,-0.239756 0,-0.363267 z"
       fill="#552f27"
       id="path13"
       style="stroke-width:0.121089" />
    <path
       d="m 7.9364286,32.419166 c 0.119878,0.102395 0.2397559,0.204791 0.3632666,0.31029 0.1163659,0.09927 0.1163659,0.09927 0.2350826,0.200553 0.1640286,0.14193 0.3264916,0.285693 0.4871934,0.431379 0.5330591,0.481337 1.0773518,0.878317 1.6995008,1.237377 -0.242178,0.121089 -0.242178,0.121089 -0.58274,0.03784 C 9.4218213,34.341407 8.9908818,33.834403 8.4993026,33.254962 8.3054216,33.023602 8.3054216,33.023602 8.0925197,32.828313 7.9364286,32.661343 7.9364286,32.661343 7.9364286,32.419166 Z"
       fill="#703b2d"
       id="path14"
       style="stroke-width:0.121089" />
    <path
       d="m 6.1200959,36.899453 c 0.4441374,0.182056 0.6888871,0.440435 0.998983,0.802213 0.085538,0.09896 0.1710759,0.197924 0.2592058,0.299885 0.06431,0.07586 0.1286191,0.15172 0.1948774,0.229879 -0.3632665,0.121089 -0.3632665,0.121089 -0.7166,-0.0525 C 6.7259138,38.098852 6.5952656,38.018777 6.4606583,37.936276 6.3290735,37.856514 6.1974887,37.776751 6.0619165,37.694571 5.9612378,37.631979 5.860559,37.569386 5.7568294,37.504897 c 0.3632665,-0.121089 0.3632665,-0.121089 0.7265331,0 -0.119878,-0.199796 -0.2397559,-0.399593 -0.3632666,-0.605444 z"
       fill="#994d42"
       id="path15"
       style="stroke-width:0.121089" />
    <path
       d="m 15.807204,36.051831 c 0.257305,-0.0033 0.514622,-0.0056 0.771941,-0.0076 0.143292,-0.0014 0.286583,-0.0028 0.434217,-0.0043 0.367997,0.01183 0.367997,0.01183 0.610174,0.132914 0,0.07992 0,0.159837 0,0.242177 -0.439552,0.03996 -0.879105,0.07992 -1.331977,0.121089 0.119878,-0.03996 0.239756,-0.07992 0.363267,-0.121089 0,-0.07992 0,-0.159837 0,-0.242177 -0.279716,0 -0.559431,0 -0.847622,0 0,-0.03996 0,-0.07992 0,-0.121089 z"
       fill="#653524"
       id="path16"
       style="stroke-width:0.121089" />
    <path
       d="m 4.9092075,32.782432 c 0.4765432,0.370645 0.8090149,0.664918 1.0897996,1.210889 -0.3388409,-0.04674 -0.4626307,-0.09704 -0.6962609,-0.355699 -0.151361,-0.249746 -0.151361,-0.249746 -0.151361,-0.491923 -0.079919,0 -0.1598373,0 -0.2421777,0 0,0.319674 0,0.639349 0,0.96871 -0.039959,0 -0.079919,0 -0.1210889,0 -0.00325,-0.199281 -0.00561,-0.398577 -0.00757,-0.597876 -0.0014,-0.110981 -0.00281,-0.221961 -0.00426,-0.336305 0.011825,-0.276707 0.011825,-0.276707 0.132914,-0.397796 z"
       fill="#954b47"
       id="path17"
       style="stroke-width:0.121089" />
    <path
       d="m 7.0888067,21.642258 c -0.071569,0.586868 -0.2396883,1.04227 -0.4843554,1.574155 -0.125046,-0.337624 -0.1265491,-0.468338 -0.00757,-0.817349 0.042457,-0.08991 0.084913,-0.179817 0.1286569,-0.27245 -0.2397559,0.119878 -0.2397559,0.119878 -0.4843554,0.242177 0.1785783,-0.412104 0.3458474,-0.726533 0.8476219,-0.726533 z"
       fill="#5a3126"
       id="path18"
       style="stroke-width:0.121089" />
    <path
       d="m 3.0928748,26.849079 c 0.1377173,0.412188 0.1017024,0.699235 0.00757,1.120071 -0.02357,0.108015 -0.04714,0.216031 -0.071424,0.327319 -0.018887,0.08179 -0.037774,0.163583 -0.057233,0.247853 -0.1198779,0.03996 -0.2397559,0.07992 -0.3632665,0.121089 0.068804,-0.660514 0.2356848,-1.200062 0.4843554,-1.816332 z"
       fill="#6d3a30"
       id="path19"
       style="stroke-width:0.121089" />
    <path
       d="m 5.3935629,35.08312 c 0.2482225,0.313544 0.4713145,0.640948 0.6886928,0.976279 0.052915,0.08132 0.1058297,0.162647 0.1603481,0.246435 0.1196698,0.230352 0.1196698,0.230352 0.1196698,0.593619 C 6.0294799,36.775704 5.8999233,36.696871 5.7246652,36.381514 5.6656627,36.222067 5.6656627,36.222067 5.6054683,36.059399 5.5648847,35.953413 5.524301,35.847427 5.4824875,35.73823 5.3935629,35.446387 5.3935629,35.446387 5.3935629,35.08312 Z"
       fill="#66372c"
       id="path20"
       style="stroke-width:0.121089" />
    <path
       d="m 5.0302963,33.266787 c 0.4354776,0.423036 0.8275841,0.861061 1.2108885,1.331978 C 5.8336096,34.42409 5.5739282,34.195218 5.272474,33.872232 5.192555,33.99211 5.1126367,34.111988 5.0302963,34.235498 c 0,-0.319674 0,-0.639349 0,-0.968711 z"
       fill="#542f27"
       id="path21"
       style="stroke-width:0.121089" />
    <path
       d="m 2.7296082,28.302145 c 0.2421777,0.363266 0.2421777,0.363266 0.2128515,0.690112 -0.03793,0.179114 -0.03793,0.179114 -0.076627,0.361847 -0.036994,0.180519 -0.036994,0.180519 -0.074734,0.364686 -0.020292,0.09194 -0.040584,0.183875 -0.061491,0.278599 C 2.48743,29.755211 2.48743,29.755211 2.4637799,29.493167 c 0.00281,-0.09834 0.00562,-0.196675 0.00851,-0.297992 0.00219,-0.09896 0.00437,-0.197923 0.00662,-0.299884 0.00281,-0.07586 0.00562,-0.151721 0.00851,-0.22988 0.079919,0 0.1598373,0 0.2421777,0 0,-0.119878 0,-0.239756 0,-0.363266 z"
       fill="#83433a"
       id="path22"
       style="stroke-width:0.121089" />
    <path
       d="m 4.3037632,24.669479 c 0.039959,0 0.079919,0 0.1210889,0 -0.073974,0.784119 -0.073974,0.784119 -0.2951541,1.082232 -0.1892013,0.128657 -0.1892013,0.128657 -0.431379,0.128657 0.1614665,-0.434718 0.3504703,-0.822885 0.6054442,-1.210889 z"
       fill="#7a3f32"
       id="path23"
       style="stroke-width:0.121089" />
    <path
       d="m 7.0888067,31.692632 c 0.3529949,0.130051 0.5785748,0.215309 0.8476219,0.484356 0,0.119878 0,0.239756 0,0.363266 C 7.4727227,32.364366 7.3163928,32.125046 7.0888067,31.692632 Z"
       fill="#834437"
       id="path24"
       style="stroke-width:0.121089" />
    <path
       d="m 6.846629,37.504897 c 0.5903081,0.575172 0.5903081,0.575172 0.7265331,0.847622 -0.3471916,-0.06944 -0.4675787,-0.104312 -0.7265331,-0.363267 0,-0.159837 0,-0.319674 0,-0.484355 z"
       fill="#944b25"
       id="path25"
       style="stroke-width:0.121089" />
    <path
       d="m 12.901071,35.567476 c 0.119878,0 0.239756,0 0.363267,0 0,0.07992 0,0.159837 0,0.242177 0.359634,0.05994 0.359634,0.05994 0.726533,0.121089 -0.484598,0.193839 -0.853139,0.03545 -1.331977,-0.121089 0.07992,-0.07992 0.159837,-0.159837 0.242177,-0.242177 z"
       fill="#8d4842"
       id="path26"
       style="stroke-width:0.121089" />
    <path
       d="m 16.897003,36.051831 c 0.359634,0.05994 0.359634,0.05994 0.726533,0.121089 0,0.07992 0,0.159837 0,0.242177 -0.239756,0.03996 -0.479511,0.07992 -0.726533,0.121089 0,-0.159837 0,-0.319674 0,-0.484355 z"
       fill="#562f25"
       id="path27"
       style="stroke-width:0.121089" />
  </g>
</svg>
